PathFileType	4	(X/Y/Z)	C:\Users\willi\Documents\UniDataLokal\DATA_Hans_PhD\TD04\B\3DGAIT_B_W12\marker_experimental.trc
DataRate	CameraRate	NumFrames	NumMarkers	Units	OrigDataRate	OrigDataStartFrame	OrigNumFrames
100.000000	100.000000	4	97	mm	100.000000	47	191
Frame#	Time	RBAK			C7			CLAV			T10			STRN			RASI			RPSI			LPSI			LASI			LPELV			RPELV			RTHI1			RTHI2			RTHI3			RTHI			RKNE			RKNEM			RPAT			RLKNEL			RLKNEM			RLPAT			RTIB1			RTIB2			RTIB3			RTIB			RANK			RANKM			RHEEL			RTOE			RM5			LTHI1			LTHI2			LTHI3			LTHI			LKNE			LKNEM			LPAT			LLKNE			LLKNEM			LLPAT			LTIB1			LTIB2			LTIB3			LTIB			LANK			LANKM			LHEEL			LTOE			LM5			*49			*50			*51			*52			*53			*54			*55			*56			*57			*58			*59			*60			*61			*62			*63			*64			*65			*66			*67			*68			*69			*70			*71			*72			*73			*74			*75			*76			*77			*78			*79			*80			*81			*82			*83			*84			*85			*86			*87			*88			*89			*90			*91			*92			*93			*94			*95			*96			
		X1	Y1	Z1	X2	Y2	Z2	X3	Y3	Z3	X4	Y4	Z4	X5	Y5	Z5	X6	Y6	Z6	X7	Y7	Z7	X8	Y8	Z8	X9	Y9	Z9	X10	Y10	Z10	X11	Y11	Z11	X12	Y12	Z12	X13	Y13	Z13	X14	Y14	Z14	X15	Y15	Z15	X16	Y16	Z16	X17	Y17	Z17	X18	Y18	Z18	X19	Y19	Z19	X20	Y20	Z20	X21	Y21	Z21	X22	Y22	Z22	X23	Y23	Z23	X24	Y24	Z24	X25	Y25	Z25	X26	Y26	Z26	X27	Y27	Z27	X28	Y28	Z28	X29	Y29	Z29	X30	Y30	Z30	X31	Y31	Z31	X32	Y32	Z32	X33	Y33	Z33	X34	Y34	Z34	X35	Y35	Z35	X36	Y36	Z36	X37	Y37	Z37	X38	Y38	Z38	X39	Y39	Z39	X40	Y40	Z40	X41	Y41	Z41	X42	Y42	Z42	X43	Y43	Z43	X44	Y44	Z44	X45	Y45	Z45	X46	Y46	Z46	X47	Y47	Z47	X48	Y48	Z48	X49	Y49	Z49	X50	Y50	Z50	X51	Y51	Z51	X52	Y52	Z52	X53	Y53	Z53	X54	Y54	Z54	X55	Y55	Z55	X56	Y56	Z56	X57	Y57	Z57	X58	Y58	Z58	X59	Y59	Z59	X60	Y60	Z60	X61	Y61	Z61	X62	Y62	Z62	X63	Y63	Z63	X64	Y64	Z64	X65	Y65	Z65	X66	Y66	Z66	X67	Y67	Z67	X68	Y68	Z68	X69	Y69	Z69	X70	Y70	Z70	X71	Y71	Z71	X72	Y72	Z72	X73	Y73	Z73	X74	Y74	Z74	X75	Y75	Z75	X76	Y76	Z76	X77	Y77	Z77	X78	Y78	Z78	X79	Y79	Z79	X80	Y80	Z80	X81	Y81	Z81	X82	Y82	Z82	X83	Y83	Z83	X84	Y84	Z84	X85	Y85	Z85	X86	Y86	Z86	X87	Y87	Z87	X88	Y88	Z88	X89	Y89	Z89	X90	Y90	Z90	X91	Y91	Z91	X92	Y92	Z92	X93	Y93	Z93	X94	Y94	Z94	X95	Y95	Z95	X96	Y96	Z96	X97	Y97	Z97	

48	0.47	-1030.982299804688	1323.691772460938	310.2716064453124	-1001.282897949219	1367.235595703125	210.1212463378906	-889.7105102539061	1285.4599609375	218.5859374999999	-1021.885131835937	989.1204223632814	214.2236175537109	-831.2188720703124	1036.651000976562	220.4940338134765	-868.4618530273438	880.6646728515625	335.2396850585937	-1041.739868164062	914.6715698242189	257.1050720214843	-1038.234741210938	918.9682006835939	167.6821899414062	-844.3551635742188	882.0947875976562	127.4968338012695	-930.3193359374999	956.8910522460939	68.27700805664057	-970.4916381835936	955.1013183593751	362.6819763183593	-981.45703125	612.1712036132814	334.0955810546874	-936.2391967773438	564.3139038085939	364.7165222167968	-952.0534057617188	511.0215454101563	325.0498962402343	-884.6103515625	541.4141845703125	415.0347595214843	-872.4675903320312	449.3362426757813	365.8862915039062	-857.1785278320312	433.4740905761719	236.9129638671874	-806.0490112304688	419.5545959472657	314.8102722167968	-890.9885864257812	422.0874938964844	361.0872802734374	-893.7914428710938	396.2501220703126	236.2228240966796	-875.0140380859375	361.5687561035157	323.1913452148437	-967.6051635742188	299.2696533203126	318.6365051269531	-1024.034912109375	302.2887268066407	352.8657226562499	-1049.319091796875	251.017562866211	313.7107849121093	-1105.032836914062	320.4728698730469	371.2426757812499	-1179.983032226562	232.2879333496095	319.7036132812499	-1141.86669921875	203.1822814941407	258.6797180175781	-1216.818481445312	243.9304351806641	264.2267150878906	-1173.806274414062	93.93247222900398	342.4583740234374	-1200.759887695312	116.3112487792969	367.9828186035156	-945.5299072265625	615.4530639648439	72.2938613891601	-893.9987182617188	574.563232421875	69.08070373535151	-926.0428466796875	521.8878784179688	94.71583557128901	-847.187255859375	546.0532836914062	45.04088592529292	-850.7676391601562	450.1372070312501	110.0895996093749	-902.7608642578125	446.8716430664063	223.2900390624999	-811.0667724609375	460.8309020996094	192.8538513183593	-867.0933227539062	414.5133056640626	104.4384613037109	-906.0317993164062	405.8798522949219	216.6286621093749	-832.9308471679688	386.4455566406251	170.1953124999999	-850.073486328125	251.4669494628907	173.0133209228515	-863.7640380859375	198.6831359863282	130.4780578613281	-861.9622192382812	156.6846466064454	178.0836181640624	-911.0570068359375	181.4295959472657	72.92677307128901	-914.6969604492188	70.0933456420899	137.5764007568359	-895.2619018554688	79.44299316406256	210.7806549072265	-961.8861083984375	34.66307067871099	179.8880462646484	-771.5325317382812	37.31563186645513	141.5111083984374	-804.55615234375	13.98997879028325	105.8129043579101	nan	nan	nan	nan	nan	nan	nan	nan	nan	nan	nan	nan	nan	nan	nan	nan	nan	nan	nan	nan	nan	nan	nan	nan	nan	nan	nan	nan	nan	nan	nan	nan	nan	nan	nan	nan	nan	nan	nan	nan	nan	nan	nan	nan	nan	nan	nan	nan	nan	nan	nan	nan	nan	nan	nan	nan	nan	nan	nan	nan	nan	nan	nan	nan	nan	nan	nan	nan	nan	nan	nan	nan	nan	nan	nan	nan	nan	nan	nan	nan	nan	nan	nan	nan	nan	nan	nan	nan	nan	nan	nan	nan	nan	nan	nan	nan	nan	nan	nan	nan	nan	nan	nan	nan	nan	nan	nan	nan	nan	nan	nan	nan	nan	nan	nan	nan	nan	nan	nan	nan	nan	nan	nan	nan	nan	nan	nan	nan	nan	nan	nan	nan	nan	nan	nan	nan	nan	nan	nan	nan	nan	nan	nan	nan	
49	0.48	-1021.293823242187	1324.598754882812	309.0371093749999	-991.1947021484374	1368.137451171875	209.0449981689453	-879.9497070312499	1286.046508789062	217.8982696533203	-1012.64453125	989.9368286132814	213.1258087158203	-821.9731445312499	1037.324584960938	219.5985870361328	-859.2293090820312	882.2052001953125	334.3864746093749	-1032.543090820312	915.3488769531251	256.3219299316406	-1029.078125	919.4255371093751	166.9871673583984	-835.391845703125	882.5067749023438	126.497573852539	-921.5651245117186	957.1238403320312	67.35990905761713	-961.6489257812499	956.2901611328126	361.7550354003906	-966.441162109375	611.9338378906251	334.5574340820312	-919.3643188476562	565.7852783203125	364.9616394042968	-933.499755859375	512.0417480468751	325.3787841796874	-867.392578125	544.5104370117188	415.2906494140624	-852.096435546875	452.8175964355469	365.9797363281249	-836.3624877929688	437.4587097167969	236.804458618164	-784.9192504882812	424.5323791503907	314.8276367187499	-870.0004272460938	425.4046936035157	360.9101562499999	-871.766845703125	399.3426818847657	236.0314331054687	-852.8649291992188	365.0272216796876	323.2816162109374	-945.0025634765625	301.8991699218751	318.4637145996093	-1001.921142578125	304.8717346191407	352.0950622558593	-1026.383178710938	252.9905853271485	313.2337341308593	-1083.37158203125	322.5777893066407	369.4762268066406	-1156.951171875	233.1834106445313	318.1551208496093	-1117.82568359375	203.9817962646485	257.6619567871093	-1194.566284179688	242.1219329833985	262.4271850585937	-1143.708374023438	96.73287200927741	345.3219604492187	-1171.857055664062	118.4868392944337	369.8917541503906	-939.60791015625	616.1722412109376	72.54064178466791	-888.74462890625	574.5138549804688	68.87261199951166	-921.4924926757812	522.4386596679688	94.75704956054682	-842.3642578125	545.3716430664062	44.56805801391597	-847.084716796875	449.4791564941407	109.6809768676757	-898.9513549804688	446.8993530273438	223.2472534179687	-806.7589111328125	459.6268310546876	192.1250610351562	-863.8696899414062	414.0315246582032	104.1549682617187	-902.8443603515625	405.8692626953126	216.5144958496093	-829.7844848632812	385.6763305664063	169.7903137207031	-848.326416015625	250.8299407958985	172.9073028564453	-862.4924926757812	198.1670074462891	130.4533233642578	-861.0791625976562	156.1926422119141	178.0943298339843	-909.8067016601562	181.3651580810547	72.97679138183588	-914.559326171875	70.10595703125006	137.7025299072265	-894.992431640625	79.32651519775396	210.8929748535156	-961.891357421875	34.76996612548834	180.0145111083984	-771.4931030273438	37.26821136474614	141.4884338378906	-804.5613403320312	13.95261573791509	105.7786788940429	nan	nan	nan	nan	nan	nan	nan	nan	nan	nan	nan	nan	nan	nan	nan	nan	nan	nan	nan	nan	nan	nan	nan	nan	nan	nan	nan	nan	nan	nan	nan	nan	nan	nan	nan	nan	nan	nan	nan	nan	nan	nan	nan	nan	nan	nan	nan	nan	nan	nan	nan	nan	nan	nan	nan	nan	nan	nan	nan	nan	nan	nan	nan	nan	nan	nan	nan	nan	nan	nan	nan	nan	nan	nan	nan	nan	nan	nan	nan	nan	nan	nan	nan	nan	nan	nan	nan	nan	nan	nan	nan	nan	nan	nan	nan	nan	nan	nan	nan	nan	nan	nan	nan	nan	nan	nan	nan	nan	nan	nan	nan	nan	nan	nan	nan	nan	nan	nan	nan	nan	nan	nan	nan	nan	nan	nan	nan	nan	nan	nan	nan	nan	nan	nan	nan	nan	nan	nan	nan	nan	nan	nan	nan	nan	
50	0.49	-1011.678405761719	1325.421752929688	307.8497924804687	-981.1737670898436	1368.954956054688	208.0230712890624	-870.2579345703124	1286.5751953125	217.2592315673828	-1003.458923339844	990.6845092773439	212.077896118164	-812.7941284179686	1037.966552734375	218.7173309326171	-850.0042724609375	883.7565307617188	333.5508422851562	-1023.387145996094	916.0091552734376	255.6215057373046	-1019.971984863281	919.8212890625001	166.3621215820312	-826.479736328125	882.8556518554688	125.5659484863281	-912.8388061523436	957.3006591796875	66.49712371826166	-952.7451782226561	957.5471801757814	360.8862609863281	-951.5927124023438	611.9443359375001	335.2304687499999	-902.6329345703125	567.559814453125	365.3620910644531	-915.1619873046875	513.3923950195312	325.9323120117187	-850.189453125	547.9152221679688	415.5708312988281	-832.1040649414062	456.6261901855469	366.0220336914062	-816.0046997070312	441.7071228027344	236.706802368164	-764.2158203125	429.8886413574219	314.7957458496093	-849.4252319335938	429.0119018554688	360.6846923828124	-850.22705078125	402.7225646972657	235.8984222412109	-831.0042114257812	368.8129272460938	323.3745117187499	-922.3447265625	304.4297790527344	318.3283691406249	-979.7600708007812	307.0558471679688	351.3458251953124	-1003.096923828125	254.4117889404297	312.8257141113281	-1061.737060546875	323.7904052734376	367.7402038574218	-1133.393310546875	232.6808319091797	316.7347106933593	-1093.0927734375	203.6784973144532	256.7579040527343	-1171.824340820312	238.6831054687501	260.7947692871093	-1112.369140625	98.40641784667976	347.8805236816406	-1141.807495117188	119.1483840942384	371.5808715820312	-933.7786865234375	616.9151000976564	72.87428283691401	-883.60595703125	574.4669189453125	68.74110412597651	-917.0819702148438	523.01513671875	94.85942077636713	-837.6593017578125	544.6965942382812	44.17850112915034	-843.5902099609375	448.8288574218751	109.3122558593749	-895.3272705078125	446.8961791992188	223.3074493408203	-802.7015380859375	458.3829040527344	191.4563598632812	-860.829833984375	413.5683288574219	103.9001693725585	-899.7014770507812	405.8441162109376	216.5234069824218	-826.8432006835938	384.9230957031251	169.4256591796874	-846.6774291992188	250.2256317138672	172.8361358642578	-861.2991943359375	197.6870117187501	130.4505920410156	-860.243896484375	155.7365875244141	178.1187133789062	-908.6862182617188	181.3147735595704	73.04749298095697	-914.4105224609375	70.13081359863287	137.8348846435546	-894.7321166992188	79.21774291992193	211.0082702636718	-961.8839111328125	34.89036941528326	180.1614379882812	-771.4520874023438	37.22394561767583	141.4635925292968	-804.5700073242188	13.9210643768311	105.7440872192382	nan	nan	nan	nan	nan	nan	nan	nan	nan	nan	nan	nan	nan	nan	nan	nan	nan	nan	nan	nan	nan	nan	nan	nan	nan	nan	nan	nan	nan	nan	nan	nan	nan	nan	nan	nan	nan	nan	nan	nan	nan	nan	nan	nan	nan	nan	nan	nan	nan	nan	nan	nan	nan	nan	nan	nan	nan	nan	nan	nan	nan	nan	nan	nan	nan	nan	nan	nan	nan	nan	nan	nan	nan	nan	nan	nan	nan	nan	nan	nan	nan	nan	nan	nan	nan	nan	nan	nan	nan	nan	nan	nan	nan	nan	nan	nan	nan	nan	nan	nan	nan	nan	nan	nan	nan	nan	nan	nan	nan	nan	nan	nan	nan	nan	nan	nan	nan	nan	nan	nan	nan	nan	nan	nan	nan	nan	nan	nan	nan	nan	nan	nan	nan	nan	nan	nan	nan	nan	nan	nan	nan	nan	nan	nan	
51	0.5	-1002.12744140625	1326.149169921875	306.7064514160156	-971.2138671874999	1369.6767578125	207.0524902343749	-860.6252441406249	1287.039184570312	216.6622619628906	-994.3104858398436	991.3546142578126	211.0881195068359	-803.6597900390624	1038.567016601562	217.856216430664	-840.7674560546875	885.292236328125	332.7380981445312	-1014.252807617188	916.6381225585939	255.0108642578124	-1010.899963378906	920.1542358398439	165.8135528564453	-817.5986938476562	883.130615234375	124.7046813964843	-904.1068725585936	957.41650390625	65.69491577148432	-943.7713623046874	958.8361206054689	360.0755310058593	-936.9122924804688	612.1634521484376	336.1034851074218	-886.0599365234375	569.582275390625	365.9102172851562	-897.068603515625	515.0079956054688	326.7034912109374	-833.0079956054688	551.574462890625	415.8661193847656	-812.5194091796875	460.6777343750001	366.0104370117187	-796.1785888671875	446.1377563476563	236.6221618652343	-743.987060546875	435.5364990234376	314.7127990722656	-829.2876586914062	432.8148193359376	360.4226074218749	-829.237548828125	406.3197937011719	235.8275604248046	-809.4685668945312	372.8466796875001	323.4645080566406	-899.6524658203125	306.7872924804688	318.2351379394531	-957.5369262695312	308.7317199707032	350.6510925292968	-979.4613037109375	255.2172088623047	312.4966125488281	-1040.074340820312	323.9862976074219	366.1260070800781	-1109.2822265625	230.7564086914063	315.4891662597656	-1067.684204101562	202.2502441406251	256.0022277832031	-1148.46630859375	233.7045135498047	259.3646545410156	-1080.248168945312	98.95928192138679	350.0475158691406	-1110.96826171875	118.3731536865235	373.0008239746093	-928.0263671875	617.6829833984375	73.28054046630854	-878.5637817382812	574.4274291992188	68.67767333984369	-912.786865234375	523.6148071289062	95.01145935058588	-833.0588989257812	544.0343627929688	43.85967254638667	-840.2650756835938	448.1909790039063	108.9713973999023	-891.757568359375	446.8678894042969	223.4371337890624	-798.870361328125	457.1107482910157	190.8287200927734	-857.953857421875	413.1285400390626	103.6659622192382	-896.5272216796875	405.8412780761719	216.6273345947265	-824.0844116210938	384.1904907226563	169.090835571289	-845.1111450195312	249.6602172851563	172.7918548583984	-860.1785888671875	197.2443389892579	130.4623260498046	-859.4498901367188	155.3198242187501	178.1499328613281	-907.6807861328125	181.2731323242188	73.13246154785151	-914.25341796875	70.16723632812506	137.9704284667968	-894.4839477539062	79.12306976318365	211.1240692138671	-961.8645629882812	35.02119827270513	180.3237762451171	-771.4119262695312	37.18256378173833	141.4369201660156	-804.58251953125	13.89451599121099	105.710578918457	nan	nan	nan	nan	nan	nan	nan	nan	nan	nan	nan	nan	nan	nan	nan	nan	nan	nan	nan	nan	nan	nan	nan	nan	nan	nan	nan	nan	nan	nan	nan	nan	nan	nan	nan	nan	nan	nan	nan	nan	nan	nan	nan	nan	nan	nan	nan	nan	nan	nan	nan	nan	nan	nan	nan	nan	nan	nan	nan	nan	nan	nan	nan	nan	nan	nan	nan	nan	nan	nan	nan	nan	nan	nan	nan	nan	nan	nan	nan	nan	nan	nan	nan	nan	nan	nan	nan	nan	nan	nan	nan	nan	nan	nan	nan	nan	nan	nan	nan	nan	nan	nan	nan	nan	nan	nan	nan	nan	nan	nan	nan	nan	nan	nan	nan	nan	nan	nan	nan	nan	nan	nan	nan	nan	nan	nan	nan	nan	nan	nan	nan	nan	nan	nan	nan	nan	nan	nan	nan	nan	nan	nan	nan	nan	
